<svg xmlns="http://www.w3.org/2000/svg" width="57" height="43.23" viewBox="0 0 57 43.23">
  <g id="Group_3470" data-name="Group 3470" transform="translate(-1700 -93)">
    <g id="ab86315aedef5b3d20d13b83f4e38b64" transform="translate(1700 97.63)">
      <path id="Path_2908" data-name="Path 2908" d="M98.75,45.588c-.028-.654-.122-1.3-.185-1.954q-.189-1.885-.378-3.766-.171-1.69-.335-3.376c-.126-1.249-.252-2.5-.378-3.75s-.248-2.5-.374-3.75c-.126-1.268-.256-2.537-.382-3.8-.055-.54-.067-1.083-.162-1.615a3.2,3.2,0,0,0-3.177-2.655c-1,0-2,0-3,0h-.2c0-.681.02-1.343,0-2a13.137,13.137,0,0,0-.142-1.67,8.561,8.561,0,0,0-6.684-6.87c-.4-.079-.812-.122-1.218-.181H81.05c-.047.008-.091.024-.138.028a8.573,8.573,0,0,0-7.87,7.874c-.063.871-.028,1.749-.039,2.623v.2h-.221c-1.033,0-2.061-.008-3.094,0a3.17,3.17,0,0,0-3.046,2.564c-.138.8-.173,1.619-.256,2.43-.114,1.127-.225,2.249-.335,3.376-.126,1.26-.252,2.525-.378,3.785-.122,1.237-.248,2.478-.37,3.714-.138,1.367-.276,2.738-.414,4.1-.126,1.272-.256,2.549-.382,3.821a6.5,6.5,0,0,0-.071,1.1A3.192,3.192,0,0,0,67.646,48.8q13.94.006,27.876,0a3.262,3.262,0,0,0,1.253-.248A3.184,3.184,0,0,0,98.75,45.588ZM75.158,18.629a6.437,6.437,0,0,1,12.75-1.107,4.992,4.992,0,0,1,.11.9c.016.819,0,1.643,0,2.486H75.166c0-.047-.012-.091-.012-.138C75.154,20.055,75.15,19.342,75.158,18.629Zm19.7,27.983a3.03,3.03,0,0,1-.461.035H68.793A2.109,2.109,0,0,1,66.6,44.765a4.485,4.485,0,0,1,.063-1.048c.146-1.351.3-2.7.449-4.045l.485-4.349c.138-1.229.272-2.462.41-3.691s.276-2.462.41-3.691c.106-.965.221-1.926.3-2.9a2.166,2.166,0,0,1,2.093-1.985c.69-.008,1.383,0,2.073,0,.035,0,.071,0,.122.008,0,.788,0,1.56,0,2.324a.279.279,0,0,1-.13.181,2.147,2.147,0,1,0,3.039,2.9A2.13,2.13,0,0,0,75.3,25.59a.3.3,0,0,1-.15-.288c.008-.737,0-1.477,0-2.229H88.022c0,.051.008.1.008.154,0,.7,0,1.406,0,2.107a.265.265,0,0,1-.134.244,2.142,2.142,0,1,0,2.424.012.3.3,0,0,1-.154-.288c.008-.685,0-1.371,0-2.056v-.189c.327,0,.635,0,.942,0a14.572,14.572,0,0,1,1.553.039,2.126,2.126,0,0,1,1.8,1.942c.063.748.15,1.493.233,2.237.122,1.13.252,2.261.378,3.391l.414,3.711c.126,1.123.248,2.249.374,3.372l.414,3.711c.11.993.233,1.985.331,2.982A2.14,2.14,0,0,1,94.86,46.612Z" transform="translate(-64.428 -10.2)"/>
    </g>
    <g id="Group_3348" data-name="Group 3348" transform="translate(1727 93.091)">
      <circle id="Ellipse_69" data-name="Ellipse 69" cx="15" cy="15" r="15" transform="translate(0 -0.091)" fill="#e89200"/>
      <text id="_0" data-name="0" transform="translate(9.678 21.531)" fill="#fff" font-size="18" font-family="SegoeUI-Semibold, Segoe UI" font-weight="600"><tspan x="0" y="0">0</tspan></text>
    </g>
  </g>
</svg>
