<svg xmlns="http://www.w3.org/2000/svg" width="64.795" height="64.542" viewBox="0 0 64.795 64.542">
  <g id="deals" transform="translate(-10 -11.92)">
    <g id="Group_3462" data-name="Group 3462" transform="translate(10 11.92)">
      <path id="Path_3015" data-name="Path 3015" d="M621.307-491.926l-7.138,7.138-.877-.337a6.407,6.407,0,0,0-4.236.067,6.41,6.41,0,0,0-3.121,2.936,7.123,7.123,0,0,0-.05,4.843,6.9,6.9,0,0,0,2.9,2.953,4.614,4.614,0,0,0,2.464.473,4.309,4.309,0,0,0,2.464-.473,6.475,6.475,0,0,0,2.987-3.206,6.357,6.357,0,0,0,.085-4l-.27-.861,7.188-7.2,7.2-7.206-1.147-1.147a14.252,14.252,0,0,0-1.215-1.131C628.5-499.081,625.239-495.857,621.307-491.926Zm-8.589,10.242a2.463,2.463,0,0,1,.337,3.713,1.83,1.83,0,0,1-1.434.776,2.378,2.378,0,0,1-2.311-.911,1.672,1.672,0,0,1-.506-1.418,2.477,2.477,0,0,1,1.772-2.565A3.222,3.222,0,0,1,612.719-481.684Z" transform="translate(-566.113 499.08)"/>
      <path id="Path_3016" data-name="Path 3016" d="M50.413-419.811c-7.053.067-8.184.118-8.69.371-.354.152-6.919,6.614-16.165,15.862L10-388l13.668,13.668,13.668,13.668,15.625-15.608c9.787-9.77,15.726-15.828,15.9-16.2.22-.489.27-1.654.321-7.171.034-3.628.067-8.572.1-11.018l.051-4.438-1.688,1.687-1.67,1.671-.085,8.927-.067,8.909L51.577-379.651,37.335-365.392,26.03-376.7,14.725-388l14.191-14.191,14.191-14.191,9.061-.118,9.044-.118,1.687-1.687,1.687-1.671-3.037.034C59.879-419.912,54.868-419.861,50.413-419.811Z" transform="translate(-10 425.21)"/>
      <path id="Path_3017" data-name="Path 3017" d="M490.33-151.434a2.072,2.072,0,0,0-.54.725c0,.085,2.075,2.228,4.606,4.758l4.59,4.59,1.941-1.941,1.941-1.941-.641-.624-.624-.641-1.232,1.232-1.215,1.215-3.965-3.965c-2.177-2.177-4.05-3.965-4.134-3.965A2.19,2.19,0,0,0,490.33-151.434Z" transform="translate(-458.067 174.939)"/>
      <path id="Path_3018" data-name="Path 3018" d="M424.985-96.7c-.945.962-1,1.046-.776,1.4.287.439,7.256,10.09,7.458,10.327.1.085.405-.1.81-.489l.675-.658L432.477-87a5.01,5.01,0,0,1-.658-1.029,4.187,4.187,0,0,1,.844-1l.827-.81,1,.692,1,.692.709-.726.725-.725-5.332-3.864c-2.919-2.126-5.383-3.881-5.45-3.9A4.37,4.37,0,0,0,424.985-96.7Zm6.9,5.721c.135.22-1.232,1.451-1.4,1.282-.186-.22-3.459-4.657-3.628-4.944a18.876,18.876,0,0,1,2.413,1.654C430.672-91.962,431.853-91.051,431.887-90.984Z" transform="translate(-396.721 124.208)"/>
      <path id="Path_3019" data-name="Path 3019" d="M332.231-32.679l-1.941,1.941,4.691,4.691,4.674,4.674,1.974-1.974,1.991-1.991-.641-.624-.624-.641-1.266,1.265-1.265,1.265-1.384-1.4-1.4-1.384,1.012-1.012,1-1.012-.658-.675-.658-.675L336.7-29.219l-1.029,1.012-1.3-1.316-1.3-1.3,1.266-1.265,1.266-1.249-.624-.641a3.659,3.659,0,0,0-.725-.641C334.206-34.62,333.293-33.742,332.231-32.679Z" transform="translate(-309.113 65.329)"/>
      <path id="Path_3020" data-name="Path 3020" d="M252.988,57.58a16.391,16.391,0,0,0-3.088,2.936c0,.1,2.075,2.261,4.606,4.792l4.606,4.606,1.535-1.569c2.75-2.8,2.666-3.273-1.367-7.357a44.386,44.386,0,0,0-3.459-3.256A2.664,2.664,0,0,0,252.988,57.58Zm4.556,4.691a40.53,40.53,0,0,1,2.987,3.189,2.564,2.564,0,0,1-.372.725c-.793,1.147-.658,1.232-4.3-2.43l-3.324-3.341.624-.574a2.032,2.032,0,0,1,1.012-.574C254.439,59.268,255.4,60.111,257.543,62.271Z" transform="translate(-234.038 -20.458)"/>
    </g>
  </g>
</svg>
