<?xml version="1.0" encoding="utf-8"?>
<!-- Svg Vector Icons : http://www.onlinewebfonts.com/icon -->
<!DOCTYPE svg PUBLIC "-//W3C//DTD SVG 1.1//EN" "http://www.w3.org/Graphics/SVG/1.1/DTD/svg11.dtd">
<svg version="1.1" xmlns="http://www.w3.org/2000/svg" xmlns:xlink="http://www.w3.org/1999/xlink" x="0px" y="0px" viewBox="0 0 1000 1000" enable-background="new 0 0 1000 1000" xml:space="preserve">
<metadata> Svg Vector Icons : http://www.onlinewebfonts.com/icon </metadata>
<g><g transform="translate(0.000000,511.000000) scale(0.100000,-0.100000)"><path d="M3465.2,1067.1v-2451.3h3217.4H9900v2451.3v2451.3H6682.6H3465.2V1067.1z M9670.2,1067.1v-2221.5H6682.6H3695v2221.5v2221.5h2987.6h2987.6V1067.1z"/><path d="M1373.9,1459.7c-266.2-26.8-388.8-68.9-453.9-159c-19.2-28.7-153.2-331.3-298.8-674.1C477.7,283.9,322.5-81.9,276.6-187.3c-126.4-293-137.9-398.3-164.7-1457.4c-21.1-944.2-19.2-982.5,47.9-1026.5c11.5-7.6,302.6-15.3,645.4-15.3c478.8,0,630.1,5.7,643.5,24.9c11.5,11.5,24.9,139.8,30.6,281.5c19.2,415.6,76.6,565,300.7,785.2c256.6,250.9,367.7,287.3,890.5,287.3h306.4l126.4-111.1c317.9-273.9,438.6-519,438.6-888.6v-111.1h68.9c51.7,0,70.9,9.6,78.5,38.3c9.6,34.5,26.8,38.3,141.7,38.3h132.1v-76.6c0-51.7,13.4-90,38.3-114.9c36.4-36.4,63.2-38.3,804.3-38.3c925,0,842.6-28.7,842.6,287.3v210.7h496h497.9l-19.2-61.3c-24.9-88.1-23-91.9,38.3-91.9c49.8,0,57.5,9.6,76.6,90c53.6,210.7,191.5,421.3,367.7,561.1l97.7,76.6h-95.8c-69,0-103.4-9.6-128.3-38.3c-34.5-38.3-59.4-38.3-1717.9-38.3H3580.1v-70.9v-72.8l-34.5,49.8c-17.2,26.8-65.1,88.1-103.4,136l-72.8,86.2v348.6c0,243.2-7.7,358.1-23,384.9c-19.2,30.6-19.2,46,0,76.6c15.3,24.9,23,116.8,23,264.3v226L3312-91.5c-63.2,59.4-76.6,151.3-34.5,220.2c19.2,30.6,19.2,46,0,76.6c-19.2,30.6-19.2,46,0,76.6c19.2,30.6,19.2,46,0,76.6c-17.2,30.6-19.2,46,0,74.7c17.2,30.6,17.2,47.9,0,82.4c-15.3,30.6-24.9,189.6-28.7,503.7l-3.8,459.6h-67h-67l-5.7-1365.5l-3.8-1363.6l-47.9,30.6l-47.9,30.7V126.8c0,997.8-5.7,1321.4-23,1338.7C2952,1496.1,1705.2,1492.3,1373.9,1459.7z M2890.7,90.4v-1283.1h-271.9c-505.6,0-632-44-905.8-314.1c-262.4-256.6-323.7-406-348.6-838.8l-11.5-226H780.2H209.5v84.3c0,474.9,46,1775.3,67,1907.4c21.1,136,80.4,293,363.9,957.6c185.8,436.6,350.5,813.9,365.8,836.9c76.6,120.6,342.8,153.2,1248.6,157l635.8,1.9V90.4z M6816.7-1698.3c0-3.8-30.6-57.4-67-118.7c-36.4-61.3-67-116.8-67-126.4c0-7.7-231.7-15.3-517.1-15.3h-517.1v76.6c0,51.7-13.4,90-38.3,114.9c-36.4,36.4-63.2,38.3-804.3,38.3c-925,0-842.6,28.7-842.6-287.3v-210.7h-134.1H3695v268.1v268.1h1560.8C6113.8-1690.6,6816.7-1694.5,6816.7-1698.3z"/><path d="M1151.8,975.2c-80.4-86.2-333.2-768-362-971c-5.7-46-3.8-114.9,1.9-153.2c17.2-91.9,93.8-124.5,283.4-124.5c275.8,0,1170.1,116.8,1275.5,166.6c116.8,55.5,118.7,61.3,118.7,593.7c0,476.9,0,482.6-42.1,511.3c-36.4,26.8-130.2,30.6-633.9,30.6h-591.8L1151.8,975.2z"/><path d="M2318.1-1491.4c-484.5-130.2-785.2-633.9-662.6-1108.9c128.3-490.3,630.1-794.8,1110.8-670.3c490.3,128.3,794.8,630.1,670.3,1106.9C3308.2-1667.6,2798.8-1361.2,2318.1-1491.4z M2804.5-1849.6c114.9-57.5,218.3-164.7,279.6-281.5c63.2-122.6,63.2-352.4,1.9-490.3c-55.5-122.6-176.2-241.3-300.7-298.8c-136-61.3-365.8-61.3-488.3,1.9c-116.8,59.4-222.2,164.7-283.4,279.6c-44.1,82.3-51.7,118.7-51.7,258.5c0,134.1,7.7,178.1,46,249c80.4,155.1,220.2,273.8,384.9,327.5C2486.6-1773,2703-1796,2804.5-1849.6z"/><path d="M2411.9-1899.4c-88.1-28.7-162.8-74.7-222.2-139.8c-103.4-109.2-132.1-181.9-132.1-340.9c0-159,28.7-231.7,132.1-340.9c101.5-109.2,193.4-147.5,356.2-147.5c162.8,0,254.7,38.3,356.2,147.5c103.4,109.2,132.1,181.9,132.1,340.9c0,103.4-11.5,162.8-36.4,210.7c-49.8,93.8-141.7,187.7-231.7,233.6C2683.9-1893.6,2490.4-1872.6,2411.9-1899.4z M2639.8-2215.4c128.3-67,124.5-273.9-7.7-333.2c-97.7-44-204.9-13.4-250.9,74.7C2291.3-2299.6,2465.5-2125.4,2639.8-2215.4z"/><path d="M7527.2-1491.4c-484.5-130.2-785.2-633.9-662.6-1108.9c128.3-490.3,630.1-794.8,1110.8-670.3c490.3,128.3,794.8,630.1,670.3,1106.9C8517.3-1667.6,8007.9-1361.2,7527.2-1491.4z M8015.5-1849.6c113-57.5,216.4-162.8,277.7-281.5c63.2-120.7,63.2-350.5,1.9-490.3c-55.5-122.6-176.2-241.3-300.7-298.8c-136-61.3-367.7-61.3-488.4,1.9c-116.8,61.3-224.1,164.7-283.4,279.6c-42.1,80.4-49.8,120.7-49.8,258.5c-1.9,134.1,5.8,178.1,44.1,249c80.4,155.1,220.2,273.8,384.9,327.5C7691.9-1773,7914-1797.9,8015.5-1849.6z"/><path d="M7621-1899.4c-88.1-28.7-162.8-74.7-222.1-139.8c-103.4-109.2-132.1-181.9-132.1-340.9c0-159,28.7-231.7,132.1-340.9c101.5-109.2,193.4-147.5,356.2-147.5c162.8,0,254.7,38.3,356.2,147.5c103.4,109.2,132.1,181.9,132.1,340.9c0,103.4-11.5,162.8-36.4,210.7c-49.8,93.8-141.7,187.7-231.7,233.6C7893-1893.6,7699.5-1872.6,7621-1899.4z M7848.9-2215.4c90-47.9,120.7-158.9,70.8-258.5c-67-126.4-262.4-126.4-329.4,0C7500.4-2299.6,7674.6-2125.4,7848.9-2215.4z"/><path d="M8400.5-1573.8c174.3-137.9,291.1-308.3,354.3-513.2c40.2-132.1,45.9-139.8,97.7-139.8c59.4,0,59.4-11.5,21.1,143.6l-11.5,47.9h231.7h231.7v-57.4c0-55.5,1.9-57.5,95.8-57.5h95.8v287.3v287.3H9042c-452,0-478.8,1.9-511.3,38.3c-24.9,28.7-59.4,38.3-128.3,38.3h-95.8L8400.5-1573.8z M9325.5-1805.5v-114.9h-252.8H8818l-57.5,101.5c-30.6,53.6-59.4,105.3-63.2,114.9c-3.8,7.7,136,13.4,310.2,13.4h317.9V-1805.5z"/></g></g>
</svg>