<?xml version="1.0" encoding="utf-8"?>
<!-- Svg Vector Icons : http://www.onlinewebfonts.com/icon -->
<!DOCTYPE svg PUBLIC "-//W3C//DTD SVG 1.1//EN" "http://www.w3.org/Graphics/SVG/1.1/DTD/svg11.dtd">
<svg version="1.1" xmlns="http://www.w3.org/2000/svg" xmlns:xlink="http://www.w3.org/1999/xlink" x="0px" y="0px" viewBox="0 0 1000 1000" enable-background="new 0 0 1000 1000" xml:space="preserve">
<metadata> Svg Vector Icons : http://www.onlinewebfonts.com/icon </metadata>
<g><g><path d="M336.7,10h-245C46.5,10,10,46.5,10,91.7v245c0,45.1,36.5,81.7,81.7,81.7h245c45.2,0,81.7-36.6,81.7-81.7v-245C418.3,46.6,381.8,10,336.7,10z M908.3,10h-245c-45.2,0-81.7,36.5-81.7,81.7v245c0,45.1,36.5,81.7,81.7,81.7h245c45.2,0,81.7-36.6,81.7-81.7v-245C990,46.6,953.5,10,908.3,10z M336.7,581.7h-245c-45.2,0-81.7,36.5-81.7,81.7v245c0,45.1,36.5,81.7,81.7,81.7h245c45.2,0,81.7-36.6,81.7-81.7v-245C418.3,618.3,381.8,581.7,336.7,581.7z M908.3,581.7h-245c-45.2,0-81.7,36.5-81.7,81.7v245c0,45.1,36.5,81.7,81.7,81.7h245c45.2,0,81.7-36.6,81.7-81.7v-245C990,618.3,953.5,581.7,908.3,581.7z"/></g></g>
</svg>