<svg xmlns="http://www.w3.org/2000/svg" width="65" height="47.6" viewBox="0 0 65 47.6">
  <g id="Group_3469" data-name="Group 3469" transform="translate(-1615 -89)">
    <g id="_Trailing_icon_2" data-name="ðŸ“Trailing icon 2" transform="translate(1615 101)">
      <g id="_Color" data-name=" â†³Color" fill="none" stroke-miterlimit="10">
        <path d="M19.778,35.6,16.91,33.039C6.724,23.979,0,18,0,10.67A10.671,10.671,0,0,1,10.878,0a11.939,11.939,0,0,1,8.9,4.055A11.939,11.939,0,0,1,28.678,0,10.671,10.671,0,0,1,39.556,10.67c0,7.333-6.724,13.309-16.91,22.388Z" stroke="none"/>
        <path d="M 19.78282737731934 32.92314147949219 L 21.3928108215332 31.49596405029297 C 26.31196022033691 27.11103439331055 30.56028175354004 23.32407379150391 33.40508270263672 19.903564453125 C 36.27548980712891 16.45226287841797 37.5555419921875 13.60462379455566 37.5555419921875 10.6702938079834 C 37.5555419921875 5.808453559875488 33.65596008300781 2.000003576278687 28.67777061462402 2.000003576278687 C 25.88020133972168 2.000003576278687 23.11769104003906 3.258253574371338 21.28806114196777 5.365833282470703 L 19.77777099609375 7.10555362701416 L 18.26748085021973 5.365833282470703 C 16.43785095214844 3.258253574371338 13.67534065246582 2.000003576278687 10.87777137756348 2.000003576278687 C 5.899580955505371 2.000003576278687 2.000000953674316 5.808453559875488 2.000000953674316 10.6702938079834 C 2.000000953674316 13.60976314544678 3.284410953521729 16.46189308166504 6.164600849151611 19.91813278198242 C 9.018791198730469 23.34316444396973 13.28007125854492 27.13357353210449 18.21421051025391 31.52248382568359 L 18.24214172363281 31.54733276367188 L 19.78282737731934 32.92314147949219 M 19.77777099609375 35.59998321533203 L 16.91000175476074 33.03911209106445 C 6.724441051483154 23.97906303405762 9.96093717731128e-07 18.00369262695312 9.96093717731128e-07 10.6702938079834 C 9.96093717731128e-07 4.694933414459229 4.786221027374268 3.515014668664662e-06 10.87777137756348 3.515014668664662e-06 C 14.31911087036133 3.515014668664662e-06 17.62199020385742 1.571443557739258 19.77777099609375 4.054713726043701 C 21.93355178833008 1.571443557739258 25.23644065856934 3.515014668664662e-06 28.67777061462402 3.515014668664662e-06 C 34.76932144165039 3.515014668664662e-06 39.5555419921875 4.694933414459229 39.5555419921875 10.6702938079834 C 39.5555419921875 18.00369262695312 32.83110046386719 23.97906303405762 22.64555168151855 33.05852508544922 L 19.77777099609375 35.59998321533203 Z" stroke="none" fill="#000"/>
      </g>
    </g>
    <g id="Group_3347" data-name="Group 3347" transform="translate(1650 89.091)">
      <circle id="Ellipse_68" data-name="Ellipse 68" cx="15" cy="15" r="15" transform="translate(0 -0.091)" fill="#e89200"/>
      <text id="_0" data-name="0" transform="translate(9.608 20.763)" fill="#fff" font-size="18" font-family="SegoeUI-Semibold, Segoe UI" font-weight="600"><tspan x="0" y="0">0</tspan></text>
    </g>
  </g>
</svg>
