<svg id="Instagram" xmlns="http://www.w3.org/2000/svg" width="28.704" height="31.105" viewBox="0 0 28.704 31.105">
  <path id="Path_2937" data-name="Path 2937" d="M31.95,10h-15.2C13.04,10,10,13.295,10,17.319V33.786c0,4.025,3.04,7.319,6.754,7.319h15.2c3.714,0,6.754-3.295,6.754-7.319V17.319C38.7,13.295,35.664,10,31.95,10Zm5.067,23.786a5.3,5.3,0,0,1-5.064,5.488h-15.2a5.3,5.3,0,0,1-5.064-5.488V22.807h5.416a9.185,9.185,0,0,0-.77,3.66c0,4.793,3.6,8.69,8.019,8.69s8.019-3.9,8.019-8.69a9.235,9.235,0,0,0-.77-3.66H37.02V33.786Zm-6.332-7.319a6.621,6.621,0,0,1-6.332,6.862,6.621,6.621,0,0,1-6.332-6.862A6.621,6.621,0,0,1,24.352,19.6,6.621,6.621,0,0,1,30.684,26.466Zm-.167-5.488a7.536,7.536,0,0,0-12.331,0h-6.5v-3.66a5.3,5.3,0,0,1,5.064-5.488h15.2a5.3,5.3,0,0,1,5.064,5.488v3.66Zm3.887-6v2.374a.96.96,0,0,1-.914.993H31.179a.963.963,0,0,1-.92-.993V14.98a.961.961,0,0,1,.92-.993H33.49A.958.958,0,0,1,34.4,14.98Z" transform="translate(-10 -10)" fill="#fff"/>
</svg>
