<?xml version="1.0" encoding="utf-8"?>
<!-- Svg Vector Icons : http://www.onlinewebfonts.com/icon -->
<!DOCTYPE svg PUBLIC "-//W3C//DTD SVG 1.1//EN" "http://www.w3.org/Graphics/SVG/1.1/DTD/svg11.dtd">
<svg version="1.1" xmlns="http://www.w3.org/2000/svg" xmlns:xlink="http://www.w3.org/1999/xlink" x="0px" y="0px" viewBox="0 0 1000 1000" enable-background="new 0 0 1000 1000" xml:space="preserve">
<metadata> Svg Vector Icons : http://www.onlinewebfonts.com/icon </metadata>
<g><g><path d="M377.5,71.2H990v122.5H377.5V71.2z M377.5,438.7H990v122.5H377.5V438.7z M377.5,806.3H990v122.5H377.5V806.3z M10,132.5C10,200.2,64.8,255,132.5,255c67.7,0,122.5-54.8,122.5-122.5C255,64.8,200.2,10,132.5,10C64.8,10,10,64.8,10,132.5z M10,500c0,67.7,54.8,122.5,122.5,122.5c67.7,0,122.5-54.8,122.5-122.5c0-67.7-54.8-122.5-122.5-122.5C64.8,377.5,10,432.3,10,500z M10,867.5C10,935.2,64.8,990,132.5,990c67.7,0,122.5-54.8,122.5-122.5c0-67.7-54.8-122.5-122.5-122.5C64.8,745,10,799.8,10,867.5z"/></g><g></g><g></g><g></g><g></g><g></g><g></g><g></g><g></g><g></g><g></g><g></g><g></g><g></g><g></g><g></g></g>
</svg>