<?xml version="1.0" encoding="utf-8"?>
<!-- Svg Vector Icons : http://www.onlinewebfonts.com/icon -->
<!DOCTYPE svg PUBLIC "-//W3C//DTD SVG 1.1//EN" "http://www.w3.org/Graphics/SVG/1.1/DTD/svg11.dtd">
<svg version="1.1" xmlns="http://www.w3.org/2000/svg" xmlns:xlink="http://www.w3.org/1999/xlink" x="0px" y="0px" viewBox="0 0 1000 1000" enable-background="new 0 0 1000 1000" xml:space="preserve">
<metadata> Svg Vector Icons : http://www.onlinewebfonts.com/icon </metadata>
<g><path d="M499.8,990c0,0-362.1-419.7-362.1-622.6C137.7,164.6,302,10,499.8,10c197.9,0,362.4,159.9,362.4,357.4C862.3,564.9,499.8,990,499.8,990z M500.6,53.5C325.2,54,180.4,196.8,180.9,366.9c0.5,170.1,319.7,555.8,319.7,555.8s318.6-387,318.4-556.4C818.9,197,676,52.9,500.6,53.5z M618.1,324.2c0,65.2-52.9,118.1-118.1,118.1c-65.2,0-118.1-52.9-118.1-118.1S434.8,206.1,500,206.1C565.2,206.1,618.1,259,618.1,324.2z M500,249.1c-41.5,0-75.1,33.6-75.1,75.1c0,41.5,33.6,75.1,75.1,75.1s75.1-33.6,75.1-75.1C575.1,282.7,541.5,249.1,500,249.1z"/></g>
</svg>