<svg id="logo" xmlns="http://www.w3.org/2000/svg" width="178" height="54" viewBox="0 0 178 54">
  <text id="_vegesell" data-name=" vegesell" transform="translate(0 44)" fill="#ffd500" font-size="41" font-family="SegoeUI-Semibold, Segoe UI" font-weight="600" letter-spacing="0.05em"><tspan x="0" y="0" fill="#000"> </tspan><tspan y="0" fill="#35a671">vege</tspan><tspan y="0" fill="#ffd500">sell</tspan></text>
  <path id="Path_2905" data-name="Path 2905" d="M-1591.206-179.763s-8.859,2.047-11.623-9.134a5.793,5.793,0,0,0-.238-.716,13.459,13.459,0,0,1,2.527.5,18.217,18.217,0,0,1,5.191,2.882c2.906,2.283,4.143,6.465,4.143,6.465Z" transform="translate(1670.418 199)" fill="#35a671"/>
  <path id="Path_2907" data-name="Path 2907" d="M-1591.386-180.614a12.115,12.115,0,0,1-7.647-3.159,14.072,14.072,0,0,1-2.546-2.868,6.925,6.925,0,0,1-.933-2.938h0a4.764,4.764,0,0,0,.819.214c.25.041,1.42.166,2.473.421,1.334.323,1.8.321,2.645.6a9.848,9.848,0,0,1,3.677,1.727,4.886,4.886,0,0,1,1.823,2.454,8.4,8.4,0,0,1,.33,1.4,11.454,11.454,0,0,1,.015,2.2Z" transform="translate(-347.744 1562.12) rotate(99)" fill="#35a671"/>
</svg>
