<?xml version="1.0" encoding="utf-8"?>
<!-- Svg Vector Icons : http://www.onlinewebfonts.com/icon -->
<!DOCTYPE svg PUBLIC "-//W3C//DTD SVG 1.1//EN" "http://www.w3.org/Graphics/SVG/1.1/DTD/svg11.dtd">
<svg version="1.1" xmlns="http://www.w3.org/2000/svg" xmlns:xlink="http://www.w3.org/1999/xlink" x="0px" y="0px" viewBox="0 0 1000 1000" enable-background="new 0 0 1000 1000" xml:space="preserve">
<metadata> Svg Vector Icons : http://www.onlinewebfonts.com/icon </metadata>
<g><path d="M949.7,917.5L801.9,770.2c-5.7-5.7-12.5-9.4-19.8-11.2l-3.4,2.8c82.3-79.5,133.6-191,133.6-314.6C912.3,205.8,716.6,10,475.1,10C233.6,10,37.8,205.8,37.8,447.2c0,241.5,195.8,437.2,437.3,437.2c96.6,0,185.8-31.3,258.2-84.4l-3.6,3.1c0.7,9.9,4.8,19.5,12.3,27.1l147.8,147.3c16.6,16.6,43.4,16.6,60,0C966.3,961,966.3,934.1,949.7,917.5z M475.1,847.2c-54,0-106.4-10.6-155.7-31.4c-47.6-20.1-90.4-49-127.2-85.7c-36.7-36.7-65.6-79.5-85.7-127.1c-20.8-49.3-31.4-101.7-31.4-155.7c0-54,10.6-106.4,31.4-155.7c20.1-47.6,49-90.4,85.7-127.1c36.7-36.7,79.5-65.6,127.2-85.7c49.3-20.8,101.7-31.4,155.7-31.4c54,0,106.4,10.6,155.7,31.4c47.6,20.1,90.4,49,127.1,85.7c36.7,36.7,65.6,79.5,85.7,127.1c20.8,49.3,31.4,101.7,31.4,155.7c0,54-10.6,106.4-31.4,155.7c-20.1,47.6-49,90.4-85.7,127.1c-36.7,36.7-79.5,65.6-127.1,85.7C581.5,836.6,529.1,847.2,475.1,847.2z"/></g>
</svg>