<?xml version="1.0" encoding="utf-8"?>
<!-- Svg Vector Icons : http://www.onlinewebfonts.com/icon -->
<!DOCTYPE svg PUBLIC "-//W3C//DTD SVG 1.1//EN" "http://www.w3.org/Graphics/SVG/1.1/DTD/svg11.dtd">
<svg version="1.1" xmlns="http://www.w3.org/2000/svg" xmlns:xlink="http://www.w3.org/1999/xlink" x="0px" y="0px" viewBox="0 0 1000 1000" enable-background="new 0 0 1000 1000" xml:space="preserve">
<metadata> Svg Vector Icons : http://www.onlinewebfonts.com/icon </metadata>
<g><g transform="translate(0.000000,511.000000) scale(0.100000,-0.100000)"><path d="M4745.4,5003.3c-15.8-4-96.9-17.8-177.9-29.6c-786.8-126.5-1508.4-660.3-1880.1-1391.8c-100.8-197.7-108.7-205.6-177.9-215.5c-96.9-13.8-166.1-65.2-215.5-164.1c-37.6-73.1-39.5-118.6-39.5-622.7c0-601,5.9-636.6,132.5-719.6c47.4-31.6,69.2-73.2,114.7-213.5c55.4-176,179.9-452.7,247.1-545.6c27.7-39.6,33.6-73.2,25.7-134.4c-11.9-96.9,19.8-203.6,87-284.7c158.2-185.8,466.6-158.2,591.1,53.4c89,152.2,47.4,383.5-87,480.4c-31.6,21.7-98.8,51.4-152.2,65.2c-92.9,25.7-92.9,25.7-189.8,223.4c-128.5,264.9-136.4,306.4-59.3,349.9c106.7,59.3,126.5,112.7,102.8,270.8c-43.5,272.8-21.7,630.6,51.4,863.9c35.6,118.6,25.7,177.9-45.5,262.9l-51.4,61.3l85,150.2c395.4,690,1117,1115,1891.9,1115c365.7,0,656.3-67.2,982.5-229.3c395.4-193.7,741.4-529.8,950.9-923.2l63.3-120.6l-57.3-65.2c-69.2-79.1-69.2-110.7-15.8-314.3c45.5-172,61.3-604.9,31.6-830.3c-15.8-118.6-15.8-122.6,43.5-189.8c79.1-90.9,191.8-122.6,395.4-110.7c191.8,11.9,270.8,53.4,334.1,174c43.5,87,45.5,98.8,39.5,646.5c-5.9,529.8-7.9,559.5-47.4,612.9c-57.3,77.1-162.1,144.3-225.4,144.3c-47.5,0-63.3,19.8-144.3,183.9c-128.5,259-302.5,496.2-523.9,709.7c-371.7,359.8-800.7,589.1-1308.7,699.8C5382,4995.4,4822.5,5023.1,4745.4,5003.3z"/><path d="M4794.9,4341.1c-634.6-89-1154.5-478.4-1435.3-1075.4c-482.4-1034-5.9-2305.1,1014.2-2700.5c658.3-255,1401.6-87,1895.9,429c1053.8,1097.2,545.7,2989.1-891.6,3315.3C5210,4347,4943.1,4362.8,4794.9,4341.1z M5295,4032.6c189.8-37.6,468.5-172,626.7-298.5c715.7-581.2,830.3-1688.3,249.1-2415.8C5718.1,748.9,4978.7,575,4354,889.3c-654.4,330.2-1006.3,1087.3-862,1852.4c94.9,506.1,425,948.9,865.9,1164.4C4668.3,4058.4,4968.8,4099.9,5295,4032.6z"/><path d="M2732.9,406.9c-209.6-55.4-330.2-126.5-508.1-306.4c-227.3-225.4-344-490.3-346-778.9c0-148.3,563.4-3074.1,626.7-3252.1c138.4-387.5,409.2-680.1,747.3-806.6l118.6-45.5l1589.5-5.9c1413.5-4,1601.3-2,1700.2,27.7c385.5,110.7,705.8,438.9,848.1,867.9c21.8,65.2,170,802.6,330.2,1640.9C8096.4-909.7,8128-714,8120.1-591.4c-35.6,434.9-359.8,842.2-782.9,982.5c-114.6,37.6-183.8,43.5-585.2,51.4l-454.7,5.9L6030.5-87.3c-146.3-294.6-272.8-541.7-280.7-545.6c-7.9-5.9-175.9,193.8-373.6,440.9C5178.4,55,5010.4,260.6,5002.4,264.6c-5.9,2-175.9-199.7-373.6-450.7c-199.7-249.1-367.7-450.7-373.6-446.8c-7.9,4-134.4,249.1-280.7,543.7l-266.9,535.8l-415.2-2C2948.4,444.5,2851.5,438.6,2732.9,406.9z M4257.1-1267.5c403.3-786.8,737.4-1429.3,743.3-1429.3c5.9,0,342,642.5,743.3,1429.3l731.5,1427.4l247.1,5.9c136.4,4,306.4-3.9,379.6-15.8c363.7-61.3,658.3-342,729.5-693.9c21.8-106.7,7.9-181.9-268.8-1631c-160.1-836.2-308.4-1573.6-330.2-1638.9c-122.6-367.7-399.4-630.7-719.6-682.1c-158.2-25.7-2894.3-25.7-3032.7,0c-316.3,59.3-573.3,300.5-701.8,658.3c-25.7,67.2-175.9,802.7-336.1,1634.9c-276.8,1433.3-290.6,1518.3-272.8,1631c45.5,272.8,223.4,512,468.5,632.6c179.9,90.9,272.8,104.8,612.9,100.8l272.8-2L4257.1-1267.5z M5289.1-551.9c150.2-183.8,282.7-348,294.6-361.8c13.8-19.8-57.3-179.9-274.8-618.8c-164.1-324.2-300.5-591.1-306.4-591.1s-142.3,264.9-304.4,589.1c-213.5,429-290.6,599-276.8,620.8c35.6,61.3,571.3,707.7,583.2,701.8C5010.4-213.8,5138.9-366.1,5289.1-551.9z"/></g></g>
</svg>