<svg xmlns="http://www.w3.org/2000/svg" width="21.223" height="21.981" viewBox="0 0 21.223 21.981">
  <path id="rocket" d="M103.166,10.238a.767.767,0,0,0-.9-.1L82.683,20.925a.879.879,0,0,0-.432.853.892.892,0,0,0,.571.772l6.984,2.508.034,5.972a.988.988,0,0,0,.653.94.906.906,0,0,0,1.046-.361l3.254-4.757,3.547,1.275h0a.791.791,0,0,0,.259.045.8.8,0,0,0,.394-.105.87.87,0,0,0,.4-.548l4.044-16.337A.952.952,0,0,0,103.166,10.238Zm-2.515,1.926L90.324,23.783l-6.343-2.347Zm-9.719,18.3v-5.2l2.76,1.022Zm7.243-3.875-6.705-2.471,10.571-11.8Z" transform="translate(-82.247 -10.036)" fill="#fff"/>
</svg>
