<svg xmlns="http://www.w3.org/2000/svg" width="32.498" height="32.39" viewBox="0 0 32.498 32.39">
  <g id="twitter" transform="translate(-10 -10)">
    <path id="Path_2940" data-name="Path 2940" d="M26.249,10A16.2,16.2,0,1,0,42.5,26.2,16.223,16.223,0,0,0,26.249,10Zm9.338,11.422c.01.2.013.413.013.621A13.71,13.71,0,0,1,14.507,33.549a10.151,10.151,0,0,0,1.151.066,9.673,9.673,0,0,0,5.982-2.056,4.822,4.822,0,0,1-4.5-3.335,4.845,4.845,0,0,0,2.175-.083,4.812,4.812,0,0,1-3.867-4.71v-.059a4.825,4.825,0,0,0,2.182.6,4.793,4.793,0,0,1-1.489-6.409,13.7,13.7,0,0,0,9.932,5.017,4.75,4.75,0,0,1-.126-1.094A4.825,4.825,0,0,1,34.284,18.2a9.7,9.7,0,0,0,3.061-1.163A4.819,4.819,0,0,1,35.226,19.7a9.62,9.62,0,0,0,2.769-.757A9.916,9.916,0,0,1,35.587,21.422Z" fill="#fff"/>
  </g>
</svg>
