<svg id="Whatsapp" xmlns="http://www.w3.org/2000/svg" width="31.096" height="30.98" viewBox="0 0 31.096 30.98">
  <path id="Path_2938" data-name="Path 2938" d="M29.942,23.252a9.331,9.331,0,0,1,1.974.881,8.829,8.829,0,0,1,1.812,1.06.8.8,0,0,1,.041.3,4.2,4.2,0,0,1-.343,1.521,2.7,2.7,0,0,1-1.437,1.311,4.827,4.827,0,0,1-2.066.53,11.008,11.008,0,0,1-3.846-1.242,11.535,11.535,0,0,1-3.443-2.362,26.572,26.572,0,0,1-3-3.7A6.967,6.967,0,0,1,18.2,17.669v-.16a4.4,4.4,0,0,1,1.5-3.162,1.535,1.535,0,0,1,1.053-.439,2.886,2.886,0,0,1,.365.031,3.648,3.648,0,0,0,.384.031.851.851,0,0,1,.536.129,1.448,1.448,0,0,1,.314.549q.162.4.67,1.76a11.867,11.867,0,0,1,.508,1.5,2.021,2.021,0,0,1-.7,1.151c-.466.486-.7.8-.7.932a.577.577,0,0,0,.1.3A9.026,9.026,0,0,0,24.3,23.036a12.925,12.925,0,0,0,3.056,2.02.9.9,0,0,0,.444.141q.3,0,1.095-.969c.52-.652.869-.976,1.047-.976ZM25.83,33.858a12.49,12.49,0,0,0,4.931-1,12.834,12.834,0,0,0,4.058-2.682,12.7,12.7,0,0,0,2.713-4.012,12.237,12.237,0,0,0,0-9.746A12.669,12.669,0,0,0,34.819,12.4a12.87,12.87,0,0,0-4.058-2.682,12.649,12.649,0,0,0-9.862,0A12.834,12.834,0,0,0,16.841,12.4a12.7,12.7,0,0,0-2.713,4.012,12.325,12.325,0,0,0,1.418,12.24l-1.6,4.665,4.9-1.54a12.581,12.581,0,0,0,6.984,2.077Zm0-27.658a14.981,14.981,0,0,1,5.921,1.2,15.394,15.394,0,0,1,4.871,3.222,15.219,15.219,0,0,1,3.259,4.812,14.7,14.7,0,0,1,0,11.707,15.2,15.2,0,0,1-3.259,4.815,15.416,15.416,0,0,1-4.867,3.222,14.981,14.981,0,0,1-5.921,1.2,15.167,15.167,0,0,1-7.39-1.882L10,37.18l2.754-8.106a14.85,14.85,0,0,1-.971-13.639,15.236,15.236,0,0,1,3.259-4.812A15.416,15.416,0,0,1,19.909,7.4,14.938,14.938,0,0,1,25.83,6.2Z" transform="translate(-10 -6.2)" fill="#fff"/>
</svg>
